<?xml version="1.0" encoding="UTF-8" standalone="no"?>
<!DOCTYPE svg PUBLIC "-//W3C//DTD SVG 1.1//EN" "http://www.w3.org/Graphics/SVG/1.1/DTD/svg11.dtd">
<svg viewBox="0 0 1400 860" preserveAspectRatio="xMidYMid meet" width="1400px" height="860px" version="1.1" xmlns="http://www.w3.org/2000/svg" xmlns:xlink="http://www.w3.org/1999/xlink" xml:space="preserve" xmlns:serif="http://www.serif.com/" style="fill-rule:evenodd;clip-rule:evenodd;" class="se-svg">
    <g transform="matrix(1,0,0,1,700,44)">
        <g transform="matrix(30,0,0,30,125.595703,0)">
        </g>
        <g transform="matrix(30,0,0,30,135.585938,0)">
        </g>
        <text x="-185.581px" y="0px" style="font-family:'Helvetica-Bold', 'Helvetica';font-weight:700;font-size:30px;fill:var(--se-text,#111111);">The Spec Sprint Workﬂow</text>
    </g>
    <g transform="matrix(1,0,0,1,700,72)">
        <text x="-404.094px" y="0px" style="font-family:'Helvetica';font-size:16px;fill:var(--se-text-secondary,#4b5563);">Seven steps from pending change requests to impact-analyzed specs. The Impact Analysis Agent makes the loop.</text>
    </g>
    <g transform="matrix(1,0,0,1,40,130)">
        <path d="M220,12L220,208C220,214.623 214.623,220 208,220L12,220C5.377,220 0,214.623 0,208L0,12C0,5.377 5.377,0 12,0L208,0C214.623,0 220,5.377 220,12Z" style="fill:var(--se-accent-fill,#FDE8DD);stroke:var(--se-accent,#E94E1B);stroke-width:2px;"/>
        <g transform="matrix(1,0,0,1,109.88,32)">
            <text x="-54.544px" y="0px" style="font-family:'Helvetica';font-size:16px;fill:var(--se-accent,#E94E1B);">SPEC SPRINT</text>
        </g>
        <g transform="matrix(1,0,0,1,109.88,52)">
            <text x="-71.91px" y="0px" style="font-family:'Helvetica';font-size:16px;fill:var(--se-accent,#E94E1B);">BACKLOG (INPUT)</text>
        </g>
        <g transform="matrix(1,0,0,1,110,92)">
            <text x="-57.828px" y="0px" style="font-family:'Helvetica';font-size:16px;fill:var(--se-text,#111111);">Pending change</text>
        </g>
        <g transform="matrix(1,0,0,1,110,112)">
            <text x="-72.934px" y="0px" style="font-family:'Helvetica';font-size:16px;fill:var(--se-text,#111111);">requests, in Posthog</text>
        </g>
        <g transform="matrix(1,0,0,1,110,132)">
            <text x="-45.809px" y="0px" style="font-family:'Helvetica';font-size:16px;fill:var(--se-text,#111111);">or equivalent</text>
        </g>
        <g transform="matrix(1,0,0,1,110,172)">
            <text x="-64.035px" y="0px" style="font-family:'Helvetica';font-size:16px;fill:var(--se-text-secondary,#4b5563);">Separate from the</text>
        </g>
        <g transform="matrix(1,0,0,1,110,190)">
            <text x="-84.047px" y="0px" style="font-family:'Helvetica';font-size:16px;fill:var(--se-text-secondary,#4b5563);">implementation backlog</text>
        </g>
    </g>
    <g>
        <path d="M262,240L290,240" style="fill:none;fill-rule:nonzero;"/>
        <path d="M278.75,234.375L290,240L278.75,245.625L278.75,234.375Z" style="fill:var(--se-text-secondary,#4b5563);fill-rule:nonzero;"/>
        <path d="M262,240L281,240" style="fill:none;fill-rule:nonzero;stroke:var(--se-text-secondary,#4b5563);stroke-width:2.5px;"/>
    </g>
    <g transform="matrix(1,0,0,1,300,130)">
        <path d="M220,12L220,208C220,214.623 214.623,220 208,220L12,220C5.377,220 0,214.623 0,208L0,12C0,5.377 5.377,0 12,0L208,0C214.623,0 220,5.377 220,12Z" style="fill:var(--se-panel-fill,#f5f5f5);stroke:var(--se-text-secondary,#4b5563);stroke-width:2px;"/>
        <path d="M220,12L220,26C220,32.623 214.623,38 208,38L12,38C5.377,38 0,32.623 0,26L0,12C0,5.377 5.377,0 12,0L208,0C214.623,0 220,5.377 220,12Z" style="fill:var(--se-text-secondary,#4b5563);"/>
        <rect x="0" y="26" width="220" height="12" style="fill:var(--se-text-secondary,#4b5563);"/>
        <g transform="matrix(1,0,0,1,14,25)">
            <text x="0px" y="0px" style="font-family:'Helvetica';font-size:16px;fill:var(--se-box-fill,#ffffff);">STEP 1</text>
        </g>
        <g transform="matrix(1,0,0,1,14,64)">
            <text x="0px" y="0px" style="font-family:'Helvetica';font-size:16px;fill:var(--se-text,#111111);">Pull change</text>
        </g>
        <g transform="matrix(1,0,0,1,14,84)">
            <text x="0px" y="0px" style="font-family:'Helvetica';font-size:16px;fill:var(--se-text,#111111);">requests</text>
        </g>
        <g transform="matrix(1,0,0,1,14,110)">
            <text x="0px" y="0px" style="font-family:'Helvetica';font-size:16px;fill:var(--se-text-secondary,#4b5563);">A batch from the</text>
        </g>
        <g transform="matrix(1,0,0,1,14,128)">
            <text x="0px" y="0px" style="font-family:'Helvetica';font-size:16px;fill:var(--se-text-secondary,#4b5563);">backlog. The four</text>
        </g>
        <g transform="matrix(1,0,0,1,14,146)">
            <text x="0px" y="0px" style="font-family:'Helvetica';font-size:16px;fill:var(--se-text-secondary,#4b5563);">custodians agree on</text>
        </g>
        <g transform="matrix(1,0,0,1,14,164)">
            <text x="0px" y="0px" style="font-family:'Helvetica';font-size:16px;fill:var(--se-text-secondary,#4b5563);">which to address.</text>
        </g>
        <g transform="matrix(1,0,0,1,14,200)">
            <text x="0px" y="0px" style="font-family:'Helvetica';font-size:14px;fill:var(--se-accent,#E94E1B);">OWNER: PRODUCT OWNER</text>
        </g>
    </g>
    <g>
        <path d="M522,240L550,240" style="fill:none;fill-rule:nonzero;"/>
        <path d="M538.75,234.375L550,240L538.75,245.625L538.75,234.375Z" style="fill:var(--se-text-secondary,#4b5563);fill-rule:nonzero;"/>
        <path d="M522,240L541,240" style="fill:none;fill-rule:nonzero;stroke:var(--se-text-secondary,#4b5563);stroke-width:2.5px;"/>
    </g>
    <g transform="matrix(1,0,0,1,560,130)">
        <path d="M220,12L220,208C220,214.623 214.623,220 208,220L12,220C5.377,220 0,214.623 0,208L0,12C0,5.377 5.377,0 12,0L208,0C214.623,0 220,5.377 220,12Z" style="fill:var(--se-panel-fill,#f5f5f5);stroke:var(--se-text-secondary,#4b5563);stroke-width:2px;"/>
        <path d="M220,12L220,26C220,32.623 214.623,38 208,38L12,38C5.377,38 0,32.623 0,26L0,12C0,5.377 5.377,0 12,0L208,0C214.623,0 220,5.377 220,12Z" style="fill:var(--se-text-secondary,#4b5563);"/>
        <rect x="0" y="26" width="220" height="12" style="fill:var(--se-text-secondary,#4b5563);"/>
        <g transform="matrix(1,0,0,1,14,25)">
            <text x="0px" y="0px" style="font-family:'Helvetica';font-size:16px;fill:var(--se-box-fill,#ffffff);">STEP 2</text>
        </g>
        <g transform="matrix(1,0,0,1,14,64)">
            <text x="0px" y="0px" style="font-family:'Helvetica';font-size:16px;fill:var(--se-text,#111111);">Author</text>
        </g>
        <g transform="matrix(1,0,0,1,14,84)">
            <text x="0px" y="0px" style="font-family:'Helvetica';font-size:16px;fill:var(--se-text,#111111);">draft spec</text>
        </g>
        <g transform="matrix(1,0,0,1,14,110)">
            <text x="0px" y="0px" style="font-family:'Helvetica';font-size:16px;fill:var(--se-text-secondary,#4b5563);">Standard template:</text>
        </g>
        <g transform="matrix(1,0,0,1,14,128)">
            <text x="0px" y="0px" style="font-family:'Helvetica';font-size:16px;fill:var(--se-text-secondary,#4b5563);">title, acceptance</text>
        </g>
        <g transform="matrix(1,0,0,1,14,146)">
            <text x="0px" y="0px" style="font-family:'Helvetica';font-size:16px;fill:var(--se-text-secondary,#4b5563);">criteria, out-of-scope,</text>
        </g>
        <g transform="matrix(1,0,0,1,14,164)">
            <text x="0px" y="0px" style="font-family:'Helvetica';font-size:16px;fill:var(--se-text-secondary,#4b5563);">brief why-now.</text>
        </g>
        <g transform="matrix(1,0,0,1,14,200)">
            <text x="0px" y="0px" style="font-family:'Helvetica';font-size:14px;fill:var(--se-accent,#E94E1B);">OWNER: PRODUCT OWNER</text>
        </g>
    </g>
    <g>
        <path d="M782,240L810,240" style="fill:none;fill-rule:nonzero;"/>
        <path d="M798.75,234.375L810,240L798.75,245.625L798.75,234.375Z" style="fill:var(--se-text-secondary,#4b5563);fill-rule:nonzero;"/>
        <path d="M782,240L801,240" style="fill:none;fill-rule:nonzero;stroke:var(--se-text-secondary,#4b5563);stroke-width:2.5px;"/>
    </g>
    <g transform="matrix(1,0,0,1,820,130)">
        <path d="M220,12L220,208C220,214.623 214.623,220 208,220L12,220C5.377,220 0,214.623 0,208L0,12C0,5.377 5.377,0 12,0L208,0C214.623,0 220,5.377 220,12Z" style="fill:var(--se-accent-fill,#FDE8DD);stroke:var(--se-accent,#E94E1B);stroke-width:2.5px;"/>
        <path d="M220,12L220,26C220,32.623 214.623,38 208,38L12,38C5.377,38 0,32.623 0,26L0,12C0,5.377 5.377,0 12,0L208,0C214.623,0 220,5.377 220,12Z" style="fill:var(--se-accent,#E94E1B);"/>
        <rect x="0" y="26" width="220" height="12" style="fill:var(--se-accent,#E94E1B);"/>
        <g transform="matrix(1,0,0,1,14,25)">
            <text x="0px" y="0px" style="font-family:'Helvetica';font-size:16px;fill:var(--se-box-fill,#ffffff);">STEP 3</text>
        </g>
        <g transform="matrix(1,0,0,1,14,64)">
            <text x="0px" y="0px" style="font-family:'Helvetica';font-size:16px;fill:var(--se-text,#111111);">Run Impact</text>
        </g>
        <g transform="matrix(1,0,0,1,14,84)">
            <text x="0px" y="0px" style="font-family:'Helvetica';font-size:16px;fill:var(--se-text,#111111);">Analysis Agent</text>
        </g>
        <g transform="matrix(1,0,0,1,14,110)">
            <text x="0px" y="0px" style="font-family:'Helvetica';font-size:16px;fill:var(--se-text-secondary,#4b5563);">Agent traverses the</text>
        </g>
        <g transform="matrix(1,0,0,1,14,128)">
            <text x="0px" y="0px" style="font-family:'Helvetica';font-size:16px;fill:var(--se-text-secondary,#4b5563);">four-layer graph and</text>
        </g>
        <g transform="matrix(1,0,0,1,14,146)">
            <text x="0px" y="0px" style="font-family:'Helvetica';font-size:16px;fill:var(--se-text-secondary,#4b5563);">produces an impact</text>
        </g>
        <g transform="matrix(1,0,0,1,14,164)">
            <text x="0px" y="0px" style="font-family:'Helvetica';font-size:16px;fill:var(--se-text-secondary,#4b5563);">report.</text>
        </g>
        <g transform="matrix(1,0,0,1,14,200)">
            <text x="0px" y="0px" style="font-family:'Helvetica';font-size:14px;fill:var(--se-accent,#E94E1B);">RUNS AUTOMATICALLY</text>
        </g>
    </g>
    <g>
        <path d="M1042,240L1070,240" style="fill:none;fill-rule:nonzero;"/>
        <path d="M1058.75,234.375L1070,240L1058.75,245.625L1058.75,234.375Z" style="fill:var(--se-text-secondary,#4b5563);fill-rule:nonzero;"/>
        <path d="M1042,240L1061,240" style="fill:none;fill-rule:nonzero;stroke:var(--se-text-secondary,#4b5563);stroke-width:2.5px;"/>
    </g>
    <g transform="matrix(1,0,0,1,1080,130)">
        <path d="M220,12L220,208C220,214.623 214.623,220 208,220L12,220C5.377,220 0,214.623 0,208L0,12C0,5.377 5.377,0 12,0L208,0C214.623,0 220,5.377 220,12Z" style="fill:var(--se-panel-fill,#f5f5f5);stroke:var(--se-text-secondary,#4b5563);stroke-width:2px;"/>
        <path d="M220,12L220,26C220,32.623 214.623,38 208,38L12,38C5.377,38 0,32.623 0,26L0,12C0,5.377 5.377,0 12,0L208,0C214.623,0 220,5.377 220,12Z" style="fill:var(--se-text-secondary,#4b5563);"/>
        <rect x="0" y="26" width="220" height="12" style="fill:var(--se-text-secondary,#4b5563);"/>
        <g transform="matrix(1,0,0,1,14,25)">
            <text x="0px" y="0px" style="font-family:'Helvetica';font-size:16px;fill:var(--se-box-fill,#ffffff);">STEP 4</text>
        </g>
        <g transform="matrix(1,0,0,1,14,64)">
            <text x="0px" y="0px" style="font-family:'Helvetica';font-size:16px;fill:var(--se-text,#111111);">Review across</text>
        </g>
        <g transform="matrix(1,0,0,1,14,84)">
            <text x="0px" y="0px" style="font-family:'Helvetica';font-size:16px;fill:var(--se-text,#111111);">four layers</text>
        </g>
        <g transform="matrix(1,0,0,1,14,110)">
            <text x="0px" y="0px" style="font-family:'Helvetica';font-size:16px;fill:var(--se-text-secondary,#4b5563);">PO anchors outcome.</text>
        </g>
        <g transform="matrix(1,0,0,1,14,128)">
            <text x="0px" y="0px" style="font-family:'Helvetica';font-size:16px;fill:var(--se-text-secondary,#4b5563);">Architect approves</text>
        </g>
        <g transform="matrix(1,0,0,1,14,146)">
            <text x="0px" y="0px" style="font-family:'Helvetica';font-size:16px;fill:var(--se-text-secondary,#4b5563);">boundaries. UX names</text>
        </g>
        <g transform="matrix(1,0,0,1,14,164)">
            <g transform="matrix(16,0,0,16,154.75,0)">
            </g>
            <g transform="matrix(16,0,0,16,159.195312,0)">
            </g>
            <text x="0px" y="0px" style="font-family:'Helvetica';font-size:16px;fill:var(--se-text-secondary,#4b5563);">components. Eng veriﬁes.</text>
        </g>
        <g transform="matrix(1,0,0,1,14,200)">
            <text x="0px" y="0px" style="font-family:'Helvetica';font-size:14px;fill:var(--se-accent,#E94E1B);">OWNER: ALL 4 CUSTODIANS</text>
        </g>
    </g>
    <g>
        <path d="M413.691,447.783L408,459L402.442,447.717L413.691,447.783Z" style="fill:var(--se-text-secondary,#4b5563);fill-rule:nonzero;"/>
        <path d="M1190,351L1189.696,409L408.274,412.733C408.274,412.733 408.133,436.541 408.053,450" style="fill:none;fill-rule:nonzero;stroke:var(--se-text-secondary,#4b5563);stroke-width:2.5px;"/>
    </g>
    <g transform="matrix(1,0,0,1,300,460)">
        <path d="M220,12L220,208C220,214.623 214.623,220 208,220L12,220C5.377,220 0,214.623 0,208L0,12C0,5.377 5.377,0 12,0L208,0C214.623,0 220,5.377 220,12Z" style="fill:var(--se-panel-fill,#f5f5f5);stroke:var(--se-text-secondary,#4b5563);stroke-width:2px;"/>
        <path d="M220,12L220,26C220,32.623 214.623,38 208,38L12,38C5.377,38 0,32.623 0,26L0,12C0,5.377 5.377,0 12,0L208,0C214.623,0 220,5.377 220,12Z" style="fill:var(--se-text-secondary,#4b5563);"/>
        <rect x="0" y="26" width="220" height="12" style="fill:var(--se-text-secondary,#4b5563);"/>
        <g transform="matrix(1,0,0,1,14,25)">
            <text x="0px" y="0px" style="font-family:'Helvetica';font-size:16px;fill:var(--se-box-fill,#ffffff);">STEP 5</text>
        </g>
        <g transform="matrix(1,0,0,1,14,64)">
            <text x="0px" y="0px" style="font-family:'Helvetica';font-size:16px;fill:var(--se-text,#111111);">Update</text>
        </g>
        <g transform="matrix(1,0,0,1,14,84)">
            <text x="0px" y="0px" style="font-family:'Helvetica';font-size:16px;fill:var(--se-text,#111111);">the graph</text>
        </g>
        <g transform="matrix(1,0,0,1,14,110)">
            <text x="0px" y="0px" style="font-family:'Helvetica';font-size:16px;fill:var(--se-text-secondary,#4b5563);">New personas, services,</text>
        </g>
        <g transform="matrix(1,0,0,1,14,128)">
            <g transform="matrix(16,0,0,16,154.742188,0)">
            </g>
            <g transform="matrix(16,0,0,16,159.1875,0)">
            </g>
            <text x="0px" y="0px" style="font-family:'Helvetica';font-size:16px;fill:var(--se-text-secondary,#4b5563);">components, refactor ﬂags.</text>
        </g>
        <g transform="matrix(1,0,0,1,14,146)">
            <text x="0px" y="0px" style="font-family:'Helvetica';font-size:16px;fill:var(--se-text-secondary,#4b5563);">Graph stays current as</text>
        </g>
        <g transform="matrix(1,0,0,1,14,164)">
            <text x="0px" y="0px" style="font-family:'Helvetica';font-size:16px;fill:var(--se-text-secondary,#4b5563);">a side effect of the sprint.</text>
        </g>
        <g transform="matrix(1,0,0,1,14,200)">
            <text x="0px" y="0px" style="font-family:'Helvetica';font-size:14px;fill:var(--se-accent,#E94E1B);">OWNER: EACH CUSTODIAN</text>
        </g>
    </g>
    <g>
        <path d="M522,570L550,570" style="fill:none;fill-rule:nonzero;"/>
        <path d="M538.75,564.375L550,570L538.75,575.625L538.75,564.375Z" style="fill:var(--se-text-secondary,#4b5563);fill-rule:nonzero;"/>
        <path d="M522,570L541,570" style="fill:none;fill-rule:nonzero;stroke:var(--se-text-secondary,#4b5563);stroke-width:2.5px;"/>
    </g>
    <g transform="matrix(1,0,0,1,560,460)">
        <path d="M220,12L220,208C220,214.623 214.623,220 208,220L12,220C5.377,220 0,214.623 0,208L0,12C0,5.377 5.377,0 12,0L208,0C214.623,0 220,5.377 220,12Z" style="fill:var(--se-panel-fill,#f5f5f5);stroke:var(--se-text-secondary,#4b5563);stroke-width:2px;"/>
        <path d="M220,12L220,26C220,32.623 214.623,38 208,38L12,38C5.377,38 0,32.623 0,26L0,12C0,5.377 5.377,0 12,0L208,0C214.623,0 220,5.377 220,12Z" style="fill:var(--se-text-secondary,#4b5563);"/>
        <rect x="0" y="26" width="220" height="12" style="fill:var(--se-text-secondary,#4b5563);"/>
        <g transform="matrix(1,0,0,1,14,25)">
            <text x="0px" y="0px" style="font-family:'Helvetica';font-size:16px;fill:var(--se-box-fill,#ffffff);">STEP 6</text>
        </g>
        <g transform="matrix(1,0,0,1,14,64)">
            <text x="0px" y="0px" style="font-family:'Helvetica';font-size:16px;fill:var(--se-text,#111111);">Cross-product</text>
        </g>
        <g transform="matrix(1,0,0,1,14,84)">
            <text x="0px" y="0px" style="font-family:'Helvetica';font-size:16px;fill:var(--se-text,#111111);">check</text>
        </g>
        <g transform="matrix(1,0,0,1,14,110)">
            <text x="0px" y="0px" style="font-family:'Helvetica';font-size:16px;fill:var(--se-text-secondary,#4b5563);">Conditional. When the</text>
        </g>
        <g transform="matrix(1,0,0,1,14,128)">
            <text x="0px" y="0px" style="font-family:'Helvetica';font-size:16px;fill:var(--se-text-secondary,#4b5563);">change affects multiple</text>
        </g>
        <g transform="matrix(1,0,0,1,14,146)">
            <text x="0px" y="0px" style="font-family:'Helvetica';font-size:16px;fill:var(--se-text-secondary,#4b5563);">products, the Cross-Product</text>
        </g>
        <g transform="matrix(1,0,0,1,14,164)">
            <text x="0px" y="0px" style="font-family:'Helvetica';font-size:16px;fill:var(--se-text-secondary,#4b5563);">Extension runs.</text>
        </g>
        <g transform="matrix(1,0,0,1,14,200)">
            <text x="0px" y="0px" style="font-family:'Helvetica';font-size:14px;fill:var(--se-accent,#E94E1B);">OWNER: ARCHITECT</text>
        </g>
    </g>
    <g>
        <path d="M782,570L810,570" style="fill:none;fill-rule:nonzero;"/>
        <path d="M798.75,564.375L810,570L798.75,575.625L798.75,564.375Z" style="fill:var(--se-text-secondary,#4b5563);fill-rule:nonzero;"/>
        <path d="M782,570L801,570" style="fill:none;fill-rule:nonzero;stroke:var(--se-text-secondary,#4b5563);stroke-width:2.5px;"/>
    </g>
    <g transform="matrix(1,0,0,1,820,460)">
        <path d="M220,12L220,208C220,214.623 214.623,220 208,220L12,220C5.377,220 0,214.623 0,208L0,12C0,5.377 5.377,0 12,0L208,0C214.623,0 220,5.377 220,12Z" style="fill:var(--se-panel-fill,#f5f5f5);stroke:var(--se-text-secondary,#4b5563);stroke-width:2px;"/>
        <path d="M220,12L220,26C220,32.623 214.623,38 208,38L12,38C5.377,38 0,32.623 0,26L0,12C0,5.377 5.377,0 12,0L208,0C214.623,0 220,5.377 220,12Z" style="fill:var(--se-text-secondary,#4b5563);"/>
        <rect x="0" y="26" width="220" height="12" style="fill:var(--se-text-secondary,#4b5563);"/>
        <g transform="matrix(1,0,0,1,14,25)">
            <text x="0px" y="0px" style="font-family:'Helvetica';font-size:16px;fill:var(--se-box-fill,#ffffff);">STEP 7</text>
        </g>
        <g transform="matrix(1,0,0,1,14,64)">
            <text x="0px" y="0px" style="font-family:'Helvetica';font-size:16px;fill:var(--se-text,#111111);">Produce</text>
        </g>
        <g transform="matrix(1,0,0,1,14,84)">
            <g transform="matrix(16,0,0,16,0,0)">
            </g>
            <g transform="matrix(16,0,0,16,4.445312,0)">
            </g>
            <text x="0px" y="0px" style="font-family:'Helvetica';font-size:16px;fill:var(--se-text,#111111);">ﬁnal spec</text>
        </g>
        <g transform="matrix(1,0,0,1,14,110)">
            <text x="0px" y="0px" style="font-family:'Helvetica';font-size:16px;fill:var(--se-text-secondary,#4b5563);">Validated against the</text>
        </g>
        <g transform="matrix(1,0,0,1,14,128)">
            <text x="0px" y="0px" style="font-family:'Helvetica';font-size:16px;fill:var(--se-text-secondary,#4b5563);">now-current graph. Impact</text>
        </g>
        <g transform="matrix(1,0,0,1,14,146)">
            <text x="0px" y="0px" style="font-family:'Helvetica';font-size:16px;fill:var(--se-text-secondary,#4b5563);">report attached. Lands in</text>
        </g>
        <g transform="matrix(1,0,0,1,14,164)">
            <text x="0px" y="0px" style="font-family:'Helvetica';font-size:16px;fill:var(--se-text-secondary,#4b5563);">the impl sprint backlog.</text>
        </g>
        <g transform="matrix(1,0,0,1,14,200)">
            <text x="0px" y="0px" style="font-family:'Helvetica';font-size:14px;fill:var(--se-accent,#E94E1B);">OWNER: PRODUCT OWNER</text>
        </g>
    </g>
    <g>
        <path d="M1042,570L1070,570" style="fill:none;fill-rule:nonzero;"/>
        <path d="M1058.75,564.375L1070,570L1058.75,575.625L1058.75,564.375Z" style="fill:var(--se-text-secondary,#4b5563);fill-rule:nonzero;"/>
        <path d="M1042,570L1061,570" style="fill:none;fill-rule:nonzero;stroke:var(--se-text-secondary,#4b5563);stroke-width:2.5px;"/>
    </g>
    <g transform="matrix(1,0,0,1,1080,460)">
        <path d="M220,12L220,208C220,214.623 214.623,220 208,220L12,220C5.377,220 0,214.623 0,208L0,12C0,5.377 5.377,0 12,0L208,0C214.623,0 220,5.377 220,12Z" style="fill:var(--se-accent-fill,#FDE8DD);stroke:var(--se-accent,#E94E1B);stroke-width:2px;"/>
        <g transform="matrix(1,0,0,1,109.88,32)">
            <text x="-71.497px" y="0px" style="font-family:'Helvetica';font-size:16px;fill:var(--se-accent,#E94E1B);">IMPLEMENTATION</text>
        </g>
        <g transform="matrix(1,0,0,1,109.88,52)">
            <text x="-80.917px" y="0px" style="font-family:'Helvetica';font-size:16px;fill:var(--se-accent,#E94E1B);">BACKLOG (OUTPUT)</text>
        </g>
        <g transform="matrix(1,0,0,1,110,92)">
            <text x="-58.695px" y="0px" style="font-family:'Helvetica';font-size:16px;fill:var(--se-text,#111111);">Impact-analyzed</text>
        </g>
        <g transform="matrix(1,0,0,1,110,112)">
            <text x="-72.93px" y="0px" style="font-family:'Helvetica';font-size:16px;fill:var(--se-text,#111111);">specs in Jira, Linear,</text>
        </g>
        <g transform="matrix(1,0,0,1,110,132)">
            <text x="-45.809px" y="0px" style="font-family:'Helvetica';font-size:16px;fill:var(--se-text,#111111);">or equivalent</text>
        </g>
        <g transform="matrix(1,0,0,1,110,172)">
            <text x="-73.371px" y="0px" style="font-family:'Helvetica';font-size:16px;fill:var(--se-text-secondary,#4b5563);">Implementation pulls</text>
        </g>
        <g transform="matrix(1,0,0,1,110,190)">
            <text x="-34.234px" y="0px" style="font-family:'Helvetica';font-size:16px;fill:var(--se-text-secondary,#4b5563);">from here</text>
        </g>
    </g>
    <g>
        <path d="M144.365,361.245L150,350L155.615,361.255L144.365,361.245Z" style="fill:var(--se-accent,#E94E1B);fill-rule:nonzero;"/>
        <path d="M1185,681C1184.957,721.037 1131.289,712.483 1026.56,713.854C839.414,716.304 411.09,717 202,717C133.186,717 149.581,599.594 149.992,359" style="fill:none;fill-rule:nonzero;stroke:var(--se-accent,#E94E1B);stroke-width:2.5px;stroke-dasharray:6,4;"/>
        <g transform="matrix(1,0,0,1,700,746)">
            <g transform="matrix(16,0,0,16,-13.496094,0)">
            </g>
            <g transform="matrix(16,0,0,16,-9.050781,0)">
            </g>
            <text x="-440.941px" y="0px" style="font-family:'Helvetica';font-size:16px;fill:var(--se-accent,#E94E1B);">PUSH-BACK LOOP — specs that the implementation sprint ﬁnds missing context return here for the next spec sprint to clear</text>
        </g>
    </g>
    <g transform="matrix(1,0,0,1,700,800)">
        <g transform="matrix(16,0,0,16,-148.398438,0)">
        </g>
        <g transform="matrix(16,0,0,16,-143.953125,0)">
        </g>
        <text x="-440.984px" y="0px" style="font-family:'Helvetica';font-size:16px;fill:var(--se-text-secondary,#4b5563);">The implementation sprint consumes the ﬁnal spec without rerunning impact analysis on it. The work has already been done.</text>
    </g>
</svg>
